# xmcd
# 
# Track frame offsets:
#     150
#     58598
#     86926
#     135298
#     177742
#     204868
# 
# Disc length: 3494
# 
# Revision: 3
# Processed by: cddbd v1.5.2PL0 Copyright (c) Steve Scherf et al.
# Submitted via: fre:ac v1.0.31
# 
DISCID=4f0da406
DTITLE=Abraham - Hicks - Ask and It is Given Part 2 CD3
DYEAR=2005
DGENRE=Speech
TTITLE0=Process #11 - Segment Intending
TTITLE1=Process #12 - Wouldn't it Be Nice if...?
TTITLE2=Process #13 - Which Thought Feels Better?
TTITLE3=Process #14 - The Process of Clearing Clutter For Clarity
TTITLE4=Process #15 - The Wallet Process
TTITLE5=Process #16 - Pivoting
EXTD=Esther and Jerry Hicks
EXTT0=
EXTT1=
EXTT2=
EXTT3=
EXTT4=
EXTT5=
PLAYORDER=
